# xmcd
#
# Track frame offsets: 
#        150
#        12897
#        23707
#        37611
#        49512
#        68798
#        87811
#        106744
#        129969
#        145785
#        159511
#        175107
#        199528
#
# Disc length: 3070 seconds
#
# Revision: 0
# Processed by: cddbd v1.5.2PL0 Copyright (c) Steve Scherf et al.
# Submitted via: ExactAudioCopy v0.99pb4
#
DISCID=8e0bfc0d
DTITLE=Rascal and McLane - Rascal and McLane
DYEAR=2003
DGENRE=Country
TTITLE0=The race is on
TTITLE1=Not counting you
TTITLE2=Lessons learned
TTITLE3=Overnight male
TTITLE4=I am a man of constant Sorrow
TTITLE5=Freedom Oklahoma
TTITLE6=Just to see you smile
TTITLE7=You got my heart
TTITLE8=Papa loved mama
TTITLE9=High lonesome sound
TTITLE10=The river
TTITLE11=Leaving on a jet plane
TTITLE12=Take me home country roads
EXTD=
EXTT0=
EXTT1=
EXTT2=
EXTT3=
EXTT4=
EXTT5=
EXTT6=
EXTT7=
EXTT8=
EXTT9=
EXTT10=
EXTT11=
EXTT12=
PLAYORDER=
